<svg xmlns="http://www.w3.org/2000/svg" width="130" height="130" viewBox="0 0 130 130" fill="none">
  <rect width="130" height="130" rx="28.4672" fill="url(#paint0_linear_3_10959)"/>
  <path fill-rule="evenodd" clip-rule="evenodd" d="M40.5159 20.189H45.3905C46.2066 20.189 46.8682 20.8505 46.8682 21.6666C46.8682 22.4827 46.2066 23.1443 45.3905 23.1443H40.5827C37.2481 23.1443 34.8359 23.1454 32.9388 23.3004C31.059 23.454 29.8153 23.7513 28.794 24.2717C26.8477 25.2634 25.2653 26.8458 24.2736 28.792C23.7532 29.8134 23.456 31.057 23.3024 32.9369C23.1474 34.834 23.1463 37.2461 23.1463 40.5808V45.3886C23.1463 46.2047 22.4847 46.8662 21.6686 46.8662C20.8525 46.8662 20.1909 46.2047 20.1909 45.3886V40.5139C20.1909 37.2602 20.1909 34.7277 20.3569 32.6962C20.5254 30.6336 20.8724 28.9577 21.6404 27.4503C22.9154 24.948 24.9499 22.9135 27.4523 21.6385C28.9597 20.8704 30.6355 20.5235 32.6982 20.3549C34.7296 20.189 37.2622 20.189 40.5159 20.189Z" fill="white"/>
  <path fill-rule="evenodd" clip-rule="evenodd" d="M89.5613 109.812H84.6866C83.8705 109.812 83.209 109.151 83.209 108.335C83.209 107.519 83.8705 106.857 84.6866 106.857H89.4944C92.8291 106.857 95.2412 106.856 97.1383 106.701C99.0182 106.547 100.262 106.25 101.283 105.73C103.229 104.738 104.812 103.156 105.804 101.209C106.324 100.188 106.621 98.9445 106.775 97.0646C106.93 95.1675 106.931 92.7554 106.931 89.4207V84.6129C106.931 83.7968 107.592 83.1352 108.409 83.1352C109.225 83.1352 109.886 83.7968 109.886 84.6129V89.4876C109.886 92.7413 109.886 95.2738 109.72 97.3053C109.552 99.3679 109.205 101.044 108.437 102.551C107.162 105.053 105.127 107.088 102.625 108.363C101.117 109.131 99.4416 109.478 97.379 109.647C95.3475 109.813 92.815 109.813 89.5613 109.812Z" fill="white"/>
  <path fill-rule="evenodd" clip-rule="evenodd" d="M89.5613 20.189H84.6866C83.8705 20.189 83.209 20.8505 83.209 21.6666C83.209 22.4827 83.8705 23.1443 84.6866 23.1443H89.4944C92.8291 23.1443 95.2412 23.1454 97.1383 23.3004C99.0182 23.454 100.262 23.7513 101.283 24.2717C103.229 25.2634 104.812 26.8458 105.804 28.792C106.324 29.8134 106.621 31.057 106.775 32.9369C106.93 34.834 106.931 37.2461 106.931 40.5808V45.3886C106.931 46.2047 107.592 46.8662 108.409 46.8662C109.225 46.8662 109.886 46.2047 109.886 45.3886V40.5139C109.886 37.2602 109.886 34.7277 109.72 32.6962C109.552 30.6336 109.205 28.9577 108.437 27.4503C107.162 24.948 105.127 22.9135 102.625 21.6385C101.117 20.8704 99.4416 20.5235 97.379 20.3549C95.3475 20.189 92.815 20.189 89.5613 20.189Z" fill="white"/>
  <path fill-rule="evenodd" clip-rule="evenodd" d="M40.5159 109.812H45.3905C46.2066 109.812 46.8682 109.151 46.8682 108.335C46.8682 107.519 46.2066 106.857 45.3905 106.857H40.5827C37.2481 106.857 34.8359 106.856 32.9388 106.701C31.059 106.547 29.8153 106.25 28.794 105.73C26.8477 104.738 25.2653 103.156 24.2736 101.209C23.7532 100.188 23.456 98.9445 23.3024 97.0646C23.1474 95.1675 23.1463 92.7554 23.1463 89.4207V84.6129C23.1463 83.7968 22.4847 83.1352 21.6686 83.1352C20.8525 83.1352 20.1909 83.7968 20.1909 84.6129V89.4876C20.1909 92.7413 20.1909 95.2738 20.3569 97.3053C20.5254 99.3679 20.8724 101.044 21.6404 102.551C22.9154 105.053 24.9499 107.088 27.4523 108.363C28.9597 109.131 30.6355 109.478 32.6982 109.647C34.7296 109.813 37.2622 109.813 40.5159 109.812Z" fill="white"/>
  <path fill-rule="evenodd" clip-rule="evenodd" d="M41.4752 39.4201C40.3906 39.7816 39.7499 40.8995 39.9862 42.0181L40.51 44.4975C40.6336 45.0826 40.9852 45.5943 41.487 45.9196C41.9889 46.2449 42.5996 46.3568 43.1842 46.2307C44.3411 45.9812 45.3971 45.7792 46.3539 45.6235C46.3629 45.622 46.3719 45.6205 46.3809 45.6189C46.3856 45.6181 46.3902 45.6173 46.3949 45.6164C47.3345 45.4456 48.0778 45.3733 48.6466 45.3733C49.321 45.3733 49.8719 45.4485 50.3185 45.5717L50.3275 45.5742L50.3371 45.5768C50.6761 45.6672 51.0109 45.8399 51.3517 46.1398C51.3626 46.1494 51.3736 46.1589 51.3847 46.1683C51.7335 46.4635 52.1348 46.942 52.5549 47.6867C52.5662 47.7067 52.5778 47.7266 52.5897 47.7462C53.0276 48.4697 53.5051 49.4801 54.0102 50.8178C54.6132 52.4875 55.1813 54.0645 55.7148 55.5488L55.7186 55.5595C56.2548 57.028 56.7677 58.4269 57.2574 59.7562L57.2619 59.7684C57.7462 61.0599 58.1952 62.2916 58.6089 63.4638C58.6132 63.476 58.6176 63.4883 58.6222 63.5004C58.9378 64.3477 59.2476 65.1772 59.5514 65.9891C58.4436 67.9625 57.3499 69.7623 56.2707 71.3909C55.0493 73.2342 53.8389 74.7775 52.6445 76.0369C51.4717 77.2505 50.3145 78.1433 49.181 78.7581C48.1199 79.3335 47.0548 79.6035 45.9577 79.6035C45.3113 79.6035 44.5458 79.5294 43.6508 79.3631C42.8301 79.2065 41.838 78.9218 40.6624 78.4864C39.814 78.1721 38.8598 78.397 38.241 79.0571C37.3904 79.9644 36.7099 80.96 36.2432 82.0489C35.7885 83.11 35.5376 84.2136 35.5376 85.3442C35.5376 86.3333 35.743 87.2895 36.1423 88.1946C36.5319 89.1078 37.11 89.9018 37.8451 90.57C38.6091 91.2646 39.5156 91.7753 40.5099 92.1369C41.5778 92.5252 42.7444 92.6913 43.9672 92.6913C46.101 92.6913 48.1471 92.0644 50.0765 90.908C51.9505 89.7985 53.7535 88.289 55.4937 86.4245C55.4971 86.4209 55.5005 86.4173 55.5038 86.4136C57.2303 84.5392 58.9206 82.3337 60.579 79.8106C61.4584 78.4913 62.3394 77.1049 63.222 75.6519C63.9165 77.3828 64.5761 78.9598 65.2008 80.3818L65.2039 80.389C66.3312 82.9314 67.4726 85.0905 68.6362 86.836C68.6432 86.8464 68.6503 86.8568 68.6574 86.8672C69.8652 88.6146 71.2187 90.0283 72.7567 90.9644C74.3433 91.9393 76.1161 92.4119 78.0152 92.4119C79.2564 92.4119 80.5554 92.2646 81.9055 91.9858C83.2766 91.7305 84.6597 91.352 86.0536 90.855C87.4463 90.3816 88.8222 89.8107 90.1808 89.1437C90.1906 89.1389 90.2004 89.134 90.2101 89.1291C91.5732 88.4352 92.8574 87.6752 94.0607 86.848C94.8973 86.2728 95.2447 85.2085 94.9086 84.2505L94.2102 82.26C94.0112 81.6931 93.5938 81.2294 93.0508 80.9723C92.5078 80.7151 91.8845 80.686 91.3199 80.8913C90.5845 81.1587 89.9302 81.3763 89.3543 81.547C88.7974 81.712 88.2701 81.844 87.7716 81.9449C87.2933 82.0234 86.7893 82.0836 86.2587 82.1245L86.2519 82.125C85.7397 82.166 85.1603 82.1877 84.5105 82.1877C83.6913 82.1877 82.9857 82.0762 82.3756 81.8783C81.8337 81.7025 81.2618 81.3865 80.6617 80.8747C80.0574 80.3591 79.4042 79.624 78.7158 78.6227C78.0268 77.6206 77.2893 76.3373 76.5076 74.7519C75.7214 73.1341 74.8703 71.2067 73.9546 68.9634C73.1504 66.9424 72.2699 64.6288 71.3126 62.0209C72.2613 60.1628 73.2064 58.4401 74.1475 56.8516C75.2343 55.0558 76.3241 53.5359 77.4116 52.2778C77.4156 52.2731 77.4197 52.2684 77.4237 52.2637C78.4926 51.0061 79.5389 50.0961 80.5497 49.4784L80.5595 49.4724C81.5199 48.8786 82.4418 48.621 83.3581 48.621C83.652 48.621 83.9653 48.6455 84.2995 48.6982C84.3416 48.7049 84.384 48.7103 84.4264 48.7146C84.6678 48.7387 84.9281 48.8006 85.2119 48.9141C85.2424 48.9263 85.2732 48.9379 85.3042 48.9487C85.5358 49.0298 85.7928 49.162 86.0751 49.37C86.1105 49.396 86.1466 49.4211 86.1835 49.445C86.4216 49.5998 86.6961 49.8397 86.9956 50.2058C87.4227 50.7278 88.0615 51.0305 88.736 51.0305H89.0153C89.4633 51.0305 89.9012 50.8967 90.2726 50.6462C91.5483 49.7858 92.5687 48.6959 93.2516 47.3625L93.2558 47.3544C93.2577 47.3506 93.2596 47.3468 93.2615 47.3431C93.8879 46.0903 94.2322 44.7704 94.2322 43.4041C94.2322 42.3987 94.0389 41.4226 93.6595 40.4909C93.279 39.4742 92.6776 38.5881 91.8792 37.8514C91.1089 37.1194 90.1943 36.5712 89.1812 36.1805C88.0719 35.7286 86.8603 35.5332 85.5931 35.5332C83.5017 35.5332 81.5069 36.1511 79.6393 37.2931C77.8628 38.3704 76.1684 39.8622 74.5448 41.7106L74.5434 41.7122C72.9492 43.5306 71.3847 45.713 69.8443 48.2402L69.8411 48.2455C69.1249 49.4277 68.4077 50.6696 67.6892 51.9708C67.5947 51.7228 67.4997 51.4747 67.4043 51.2267C66.7165 49.4152 66.0274 47.4972 65.337 45.4722L65.336 45.4692C64.7332 43.709 64.1072 42.2023 63.4474 40.9852C62.8289 39.8025 62.1302 38.7658 61.3224 37.9537C60.5462 37.1505 59.6315 36.5138 58.5658 36.1687C57.6917 35.8788 56.7783 35.7427 55.8404 35.7427C55.1456 35.7427 54.2999 35.8536 53.3727 36.0244L53.362 36.0264C52.4277 36.2031 51.348 36.4618 50.1316 36.7953C48.9081 37.1076 47.5643 37.4886 46.1021 37.9367C44.6392 38.385 43.0968 38.8795 41.4752 39.4201Z" fill="white"/>
  <mask id="mask0_3_10959" style="mask-type:alpha" maskUnits="userSpaceOnUse" x="35" y="36" width="61" height="58">
    <path fill-rule="evenodd" clip-rule="evenodd" d="M41.5025 40.2868C40.4179 40.6483 39.7772 41.7662 40.0136 42.8848L40.5374 45.3642C40.661 45.9493 41.0126 46.461 41.5144 46.7863C42.0162 47.1116 42.6269 47.2235 43.2115 47.0974C44.3684 46.8479 45.4245 46.646 46.3813 46.4902C46.3857 46.4895 46.3901 46.4887 46.3945 46.488C46.3961 46.4877 46.3976 46.4875 46.3991 46.4872C46.4068 46.4859 46.4145 46.4845 46.4222 46.4831C47.3618 46.3123 48.1052 46.24 48.674 46.24C49.3483 46.24 49.8993 46.3152 50.3459 46.4384C50.3521 46.4401 50.3583 46.4418 50.3645 46.4435C50.7035 46.5339 51.0382 46.7066 51.379 47.0065C51.3899 47.0161 51.4009 47.0256 51.412 47.035C51.7609 47.3302 52.1621 47.8087 52.5822 48.5534C52.5912 48.5694 52.6005 48.5853 52.6099 48.601C52.6112 48.6033 52.6126 48.6056 52.614 48.6079C52.615 48.6096 52.616 48.6113 52.617 48.6129C53.0549 49.3364 53.5325 50.3468 54.0376 51.6846C54.6405 53.3543 55.2087 54.9312 55.7421 56.4155L55.746 56.4262C56.2821 57.8947 56.795 59.2937 57.2848 60.6229L57.2893 60.6351C57.7736 61.9266 58.2225 63.1583 58.6362 64.3305C58.639 64.3384 58.6419 64.3463 58.6447 64.3542C58.6463 64.3585 58.6479 64.3628 58.6495 64.3671C58.9652 65.2144 59.2749 66.0439 59.5788 66.8558C58.471 68.8292 57.3772 70.629 56.2981 72.2576C55.0765 74.101 53.8661 75.6445 52.6716 76.9039C51.4988 78.1173 50.3417 79.01 49.2083 79.6248C48.1473 80.2002 47.0822 80.4702 45.9851 80.4702C45.339 80.4702 44.5738 80.3961 43.6794 80.2301C42.8585 80.0735 41.866 79.7887 40.6898 79.353C39.8413 79.0388 38.8872 79.2637 38.2684 79.9238C37.4177 80.8311 36.7372 81.8267 36.2706 82.9156C35.8158 83.9767 35.5649 85.0803 35.5649 86.2109C35.5649 87.2001 35.7704 88.1564 36.1697 89.0616C36.5594 89.9747 37.1375 90.7686 37.8724 91.4367C38.6365 92.1313 39.5429 92.642 40.5372 93.0036C41.6052 93.3919 42.7717 93.558 43.9946 93.558C46.1282 93.558 48.1742 92.9311 50.1036 91.7749C51.9777 90.6654 53.7808 89.1558 55.5211 87.2912C55.5244 87.2876 55.5278 87.284 55.5312 87.2803C57.2577 85.4058 58.9481 83.2002 60.6065 80.677C61.4859 79.3578 62.3668 77.9715 63.2494 76.5186C63.9439 78.2495 64.6035 79.8265 65.2281 81.2485L65.2313 81.2557C66.3586 83.7981 67.4999 85.9572 68.6636 87.7027C68.6675 87.7086 68.6714 87.7144 68.6754 87.7202C68.6785 87.7248 68.6816 87.7294 68.6848 87.7339C69.8923 89.481 71.2455 90.8945 72.7831 91.8306C74.37 92.8059 76.1431 93.2786 78.0425 93.2786C79.2837 93.2786 80.5827 93.1313 81.9327 92.8525C83.3035 92.5973 84.6862 92.2189 86.0797 91.7222C87.4729 91.2487 88.8491 90.6776 90.2082 90.0104C90.218 90.0056 90.2277 90.0007 90.2374 89.9958C91.6005 89.3019 92.8847 88.5419 94.088 87.7147C94.9246 87.1395 95.272 86.0752 94.9359 85.1172L94.2375 83.1267C94.0386 82.5598 93.6211 82.0961 93.0781 81.839C92.5352 81.5819 91.9119 81.5527 91.3473 81.758C90.6119 82.0254 89.9575 82.2431 89.3816 82.4137C88.8248 82.5787 88.2975 82.7106 87.799 82.8115C87.3207 82.8901 86.8167 82.9503 86.2861 82.9912L86.2792 82.9917C85.767 83.0327 85.1876 83.0544 84.5379 83.0544C83.7186 83.0544 83.013 82.9429 82.403 82.745C81.861 82.5693 81.2892 82.2532 80.6891 81.7414C80.0847 81.2258 79.4315 80.4907 78.7431 79.4894C78.0544 78.4876 77.3171 77.2047 76.5355 75.6198C75.7493 74.002 74.8981 72.0745 73.9823 69.831C73.178 67.8098 72.2973 65.4959 71.34 62.8876C72.2887 61.0294 73.2339 59.3066 74.1751 57.7179C75.2618 55.9223 76.3515 54.4025 77.4389 53.1445C77.443 53.1398 77.447 53.1351 77.4511 53.1304C78.52 51.8728 79.5662 50.9628 80.577 50.3451L80.5868 50.3391C81.5473 49.7453 82.4692 49.4877 83.3855 49.4877C83.6794 49.4877 83.9926 49.5122 84.3268 49.5649C84.369 49.5716 84.4113 49.577 84.4538 49.5813C84.6951 49.6054 84.9554 49.6673 85.2393 49.7808C85.2698 49.793 85.3005 49.8046 85.3316 49.8154C85.5632 49.8965 85.8202 50.0287 86.1024 50.2367C86.1378 50.2627 86.174 50.2878 86.2108 50.3117C86.449 50.4665 86.7234 50.7064 87.023 51.0725C87.45 51.5945 88.0889 51.8972 88.7633 51.8972H89.0427C89.4907 51.8972 89.9285 51.7634 90.3 51.5129C91.5756 50.6525 92.596 49.5626 93.279 48.2292C93.2809 48.2255 93.2828 48.2217 93.2847 48.2179L93.2888 48.2098C93.9152 46.957 94.2596 45.6371 94.2596 44.2708C94.2596 43.2655 94.0662 42.2894 93.6869 41.3578C93.3064 40.341 92.705 39.4549 91.9066 38.7182C91.1363 37.9861 90.2216 37.4379 89.2085 37.0472C88.0992 36.5952 86.8876 36.3999 85.6204 36.3999C83.5292 36.3999 81.5346 37.0177 79.6671 38.1595C77.8905 39.2369 76.1959 40.7287 74.5722 42.5773L74.5708 42.5789C72.9766 44.3973 71.412 46.5797 69.8716 49.1069L69.8684 49.1122C69.1523 50.2944 68.435 51.5363 67.7166 52.8375C67.6221 52.5896 67.5272 52.3417 67.4318 52.0937C66.7439 50.2822 66.0548 48.364 65.3644 46.3389L65.3634 46.3359C64.7605 44.5757 64.1345 43.0691 63.4748 41.8519C62.8563 40.6692 62.1575 39.6324 61.3496 38.8203C60.5734 38.0171 59.6587 37.3804 58.5928 37.0353C57.7188 36.7455 56.8055 36.6094 55.8677 36.6094C55.1729 36.6094 54.3273 36.7203 53.4 36.8911L53.3894 36.8931C52.4551 37.0698 51.3754 37.3285 50.1591 37.6619C48.9355 37.9742 47.5916 38.3553 46.1294 38.8034C44.6666 39.2517 43.1242 39.7462 41.5025 40.2868Z" fill="white"/>
  </mask>
  <g mask="url(#mask0_3_10959)">
    <path opacity="0.56" d="M103.469 42.8906C110.61 22.5898 92.9319 13.0171 91.7211 13.676C82.5387 21.0896 63.9779 36.0602 63.1943 36.6343C62.2148 37.3521 71.4275 63.0211 72.7382 65.4092C74.049 67.7972 96.3284 63.1914 103.469 42.8906Z" fill="url(#paint1_linear_3_10959)"/>
    <path opacity="0.56" d="M37.6821 93.1031C54.0044 103.958 68.9716 91.245 68.78 90.0632C65.0908 80.528 57.6471 61.2577 57.3864 60.4579C57.0605 59.4581 30.1199 61.1889 27.4569 61.7344C24.7938 62.2799 21.3597 82.2479 37.6821 93.1031Z" fill="url(#paint2_linear_3_10959)"/>
  </g>
  <defs>
    <linearGradient id="paint0_linear_3_10959" x1="108.608" y1="158.755" x2="50.083" y2="-2.28136e-06" gradientUnits="userSpaceOnUse">
      <stop stop-color="#6B3CF0"/>
      <stop offset="0.976456" stop-color="#0030DB"/>
    </linearGradient>
    <linearGradient id="paint1_linear_3_10959" x1="41.1573" y1="68.1676" x2="88.2453" y2="38.3053" gradientUnits="userSpaceOnUse">
      <stop offset="0.42016" stop-color="#2E75FF"/>
      <stop offset="1" stop-color="white" stop-opacity="0"/>
    </linearGradient>
    <linearGradient id="paint2_linear_3_10959" x1="81.8484" y1="72.8793" x2="47.6571" y2="106.843" gradientUnits="userSpaceOnUse">
      <stop stop-color="#6D8DFF"/>
      <stop offset="1" stop-color="white" stop-opacity="0"/>
    </linearGradient>
  </defs>
</svg>