<svg width="18" height="18" viewBox="0 0 18 18" fill="none" xmlns="http://www.w3.org/2000/svg">
<path d="M9 5.625C9.62132 5.625 10.125 5.12132 10.125 4.5C10.125 3.87868 9.62132 3.375 9 3.375C8.37868 3.375 7.875 3.87868 7.875 4.5C7.875 5.12132 8.37868 5.625 9 5.625Z" fill="currentColor"/>
<path d="M9 10.125C9.62132 10.125 10.125 9.62132 10.125 9C10.125 8.37868 9.62132 7.875 9 7.875C8.37868 7.875 7.875 8.37868 7.875 9C7.875 9.62132 8.37868 10.125 9 10.125Z" fill="currentColor"/>
<path d="M9 14.25C9.62132 14.25 10.125 13.7463 10.125 13.125C10.125 12.5037 9.62132 12 9 12C8.37868 12 7.875 12.5037 7.875 13.125C7.875 13.7463 8.37868 14.25 9 14.25Z" fill="currentColor"/>
</svg>
